<?xml version="1.0" encoding="UTF-8" standalone="no"?>
<!DOCTYPE svg PUBLIC "-//W3C//DTD SVG 1.1//EN"
 "http://www.w3.org/Graphics/SVG/1.1/DTD/svg11.dtd">
<!-- Generated by graphviz version 2.43.0 (0)
 -->
<!-- Title: %3 Pages: 1 -->
<svg width="116pt" height="164pt"
 viewBox="0.00 0.00 116.00 164.47" xmlns="http://www.w3.org/2000/svg" xmlns:xlink="http://www.w3.org/1999/xlink">
<g id="graph0" class="graph" transform="scale(1 1) rotate(0) translate(4 160.47)">
<title>%3</title>
<polygon fill="white" stroke="transparent" points="-4,4 -4,-160.47 112,-160.47 112,4 -4,4"/>
<!-- &#45;1 -->
<g id="node1" class="node">
<title>&#45;1</title>
<polygon fill="lightgray" stroke="black" points="24,-156.47 0,-156.47 0,-138.47 24,-138.47 24,-156.47"/>
<text text-anchor="middle" x="12" y="-145.27" font-family="Times,serif" font-size="9.00">&#45;1</text>
</g>
<!-- &#45;2 -->
<g id="node2" class="node">
<title>&#45;2</title>
<polygon fill="lightgray" stroke="black" points="66,-156.47 42,-156.47 42,-138.47 66,-138.47 66,-156.47"/>
<text text-anchor="middle" x="54" y="-145.27" font-family="Times,serif" font-size="9.00">&#45;2</text>
</g>
<!-- 50 -->
<g id="node5" class="node">
<title>50</title>
<ellipse fill="white" stroke="black" cx="75" cy="-84.08" rx="18.27" ry="18.27"/>
<text text-anchor="middle" x="75" y="-81.88" font-family="Times,serif" font-size="9.00">50</text>
</g>
<!-- &#45;2&#45;&gt;50 -->
<g id="edge3" class="edge">
<title>&#45;2&#45;&gt;50</title>
<path fill="none" stroke="red" stroke-width="0.27" d="M56.75,-138.44C59.13,-131.47 62.72,-120.98 66.09,-111.13"/>
<polygon fill="red" stroke="red" stroke-width="0.27" points="69.4,-112.26 69.33,-101.66 62.78,-109.99 69.4,-112.26"/>
</g>
<!-- &#45;3 -->
<g id="node3" class="node">
<title>&#45;3</title>
<polygon fill="lightgray" stroke="black" points="108,-156.47 84,-156.47 84,-138.47 108,-138.47 108,-156.47"/>
<text text-anchor="middle" x="96" y="-145.27" font-family="Times,serif" font-size="9.00">&#45;3</text>
</g>
<!-- &#45;3&#45;&gt;50 -->
<g id="edge1" class="edge">
<title>&#45;3&#45;&gt;50</title>
<path fill="none" stroke="green" stroke-width="0.41" d="M93.25,-138.44C90.87,-131.47 87.28,-120.98 83.91,-111.13"/>
<polygon fill="green" stroke="green" stroke-width="0.41" points="87.22,-109.99 80.67,-101.66 80.6,-112.26 87.22,-109.99"/>
</g>
<!-- 0 -->
<g id="node4" class="node">
<title>0</title>
<ellipse fill="lightblue" stroke="black" cx="75" cy="-14.85" rx="14.7" ry="14.7"/>
<text text-anchor="middle" x="75" y="-12.65" font-family="Times,serif" font-size="9.00">0</text>
</g>
<!-- 50&#45;&gt;0 -->
<g id="edge2" class="edge">
<title>50&#45;&gt;0</title>
<path fill="none" stroke="red" stroke-width="1.03" d="M75,-65.42C75,-57.74 75,-48.61 75,-40.29"/>
<polygon fill="red" stroke="red" stroke-width="1.03" points="78.5,-40.01 75,-30.01 71.5,-40.01 78.5,-40.01"/>
</g>
</g>
</svg>
